<svg width="254" height="214" fill="none" xmlns="http://www.w3.org/2000/svg"><path d="M49.721 78.053c4.916-4.789 5.205-12.593.658-17.733-6.586-7.446-2.597-19.23 7.157-21.143l74.088-14.534a56.1 56.1 0 0116.862-.72l10.423 1.132a73.996 73.996 0 0145.802 22.757l35.53 37.62c7.816 8.275 8.105 21.122.669 29.741a22.197 22.197 0 00-3.723 22.942l.616 1.498c7.235 17.592-7.185 36.453-26.059 34.086l-87.119-10.931a74.049 74.049 0 00-12.293-.511l-65.952 2.748c-13.866.578-26.194-8.757-29.398-22.26a28.973 28.973 0 01-.188-12.532l1.444-7.012a61.29 61.29 0 0120.378-34.375L39 88.5l10.721-10.447z" fill="#F4F4F4"/><g clip-path="url(#prefix__clip0_524_1696)"><path d="M196.17 179.051a3.752 3.752 0 001.557-1.699 5.01 5.01 0 01-1.663.994c-4.087 1.395-7.235-2.268-11.082-2.607-1.919-.17-3.833.435-5.752.465-1.919.031-3.609-.683-5.205-1.729-1.672-1.096-3.281-2.305-5.31-2.623-1.688-.262-2.858.417-4.189 1.056a422.95 422.95 0 009.946 2.915c4.83 1.356 9.72 2.519 14.691 3.22 2.067.286 5.082 1.105 7.007.008zM138.983 163.434c2.093 1.459 4.736 2.277 7.1 3.181a249.35 249.35 0 007.842 2.844c-1.168-1.455-2.171-3.038-3.442-4.406-1.679-1.807-3.377-2.502-5.788-2.694-1.844-.145-3.143-.818-4.177-2.357-.448-.671-.81-1.507-1.419-2.048-.477-.426-1.05-.6-1.649-.674-.52 2.369-.759 4.554 1.533 6.154z" fill="#AEAEAE"/><path d="M205.688 170.383c-.263-.45-.535-.854-.755-1.264-1.659 1.351-3.801 1.891-5.924 2.091-2.811.25-5.641.227-8.448-.071-5.223-.526-10.345-1.83-15.334-3.422-5.055-1.617-10.104-3.415-15.009-5.439-5.228-2.157-9.944-5.35-15.176-7.494-2.115-.866-4.456-1.62-5.744-3.652a5.222 5.222 0 01-.45-.885l-.42-.937c-1.664.238-3.248.824-4.578 1.911-.719.584-1.766 1.578-1.612 2.62.145.982 1.334 1.257 2.145 1.348 1.899.206 3.856-.368 5.564.796 1.316.898 1.702 2.442 2.791 3.518 1.313 1.297 3.697.68 5.361 1.318 1.478.566 2.741 1.571 3.828 2.699 2.301 2.382 3.772 5.825 6.806 7.422 1.768.931 3.371.79 5.084-.14 1.29-.696 2.536-1.207 4.019-1.209 1.601-.004 3.163.516 4.577 1.232 1.548.781 2.892 1.994 4.501 2.642 3.167 1.274 6.673-.65 9.973.27 2.888.804 6.683 4.171 9.574 1.701 1.036-.886 1.825-2.039 3.111-2.609 1.287-.57 2.588-.223 3.909.103.859.212 1.752.421 2.364-.409.539-.738.247-1.447-.157-2.14z" fill="#fff"/><path d="M200.217 175.373a1.107 1.107 0 01-.076-.185.027.027 0 00-.012.006c.314 1.817-.419 3.691-1.762 4.995-2.002 1.94-4.735 1.657-7.29 1.357-10.61-1.248-20.87-4.564-31.005-7.886a7.692 7.692 0 01-1.744-.57l-1.108-.364c-5.687-1.858-11.386-3.862-16.778-6.47-1.803-.873-3.708-1.972-4.571-3.88-.57-1.259-.542-2.613-.205-3.906a6.24 6.24 0 00.027 5.885c1.375 2.6 4.185 4.136 6.757 5.316 10.818 4.958 22.537 7.675 34.047 10.482 5.387 1.313 10.849 2.595 16.428 2.586 2.264-.003 5.529.078 7.134-1.843 1.364-1.627 1.068-3.771.158-5.523z" fill="#AEAEAE"/><path d="M175.016 152.149c0 .394.222.518.666.372.072-.19.109-.392.106-.595.043-.709-.188-1.475-.337-2.167-.058-.264-.098-.931-.507-.941-.074-.002-.277.178-.454.317-.083.666.145 1.418.281 2.029.066.274.088.724.245.985zM167.354 157.489c.198.011 1.211.1 1.18-.27-.013-.154-.899-.372-1.178-.48-.156.017-.31.043-.463.079a1.086 1.086 0 00-.303.103l-.025.365c.13.188.587.191.789.203z" fill="#fff"/><path d="M175.715 182.385c-7.099-1.75-14.197-3.524-21.156-5.784-3.392-1.101-6.751-2.319-10.035-3.713-2.75-1.169-5.618-2.384-7.902-4.347a11.445 11.445 0 01-2.244-2.565c.029.456.09.91.182 1.357.667 3.159 3.258 4.943 5.825 6.588 5.016 3.213 10.662 5.257 16.288 7.119 5.689 1.88 11.401 3.745 17.193 5.286 2.987.796 6 1.524 9.038 2.103 2.655.506 5.404.933 8.086.367a13.36 13.36 0 007.099-4.17 16.88 16.88 0 01-3.124.441c-6.529.394-12.951-1.13-19.25-2.682zM144.415 152.34a51.02 51.02 0 017.032 3.121c4.45 2.345 8.825 4.537 13.552 6.277 4.331 1.594 8.676 3.165 13.107 4.461 4.514 1.32 9.126 2.338 13.825 2.669 3.66.259 8.998.781 11.9-1.982.004-3.348-.643-6.632-1.391-9.887-.748-3.255-1.348-6.577-3.581-9.174-1.997-2.333-4.536-4.311-7.015-6.104-2.48-1.792-5.097-3.351-7.923-4.496-5.632-2.282-12.036-3.418-18.069-4.045-5.352-.556-10.921-.296-15.706 2.411-4.512 2.555-8.944 7.342-10.242 12.571.209 2.29 2.306 3.41 4.511 4.178zm46.953 4.915c.363-.792 1.022-1.248 1.774-1.529a.34.34 0 01.2-.147c.827-.227 2.512-.767 2.664.632.138 1.295-1.723 1.84-2.651 2.155-.971.326-2.662.357-1.987-1.111zm-7.059-8.572c.061-.112.128-.222.202-.327.609-1.014 1.831-1.683 2.964-1.938 1.771-.399 1.03 1.803.406 2.543-.591.703-1.4 1.156-2.227 1.525-.456.205-1.197.657-1.604.126-.369-.479.019-1.487.259-1.929zm-3.416 9.002c1.102-.744 2.865.297 3.659 1.11.494.506 1.683 2.497.093 2.366-.843-.07-1.833-.619-2.574-1.01-.571-.299-1.336-.715-1.582-1.363s0-.959.404-1.103zm-6.608-9.472c.005-.013.009-.025.023-.035a.235.235 0 01.192-.099 1.123 1.123 0 011.428.363c.426.63.494 1.657.619 2.383.119.698.197 1.444-.113 2.104-.561 1.176-1.754 1.056-2.099-.135-.317-1.091-.749-2.564-.434-3.755a1.011 1.011 0 01.384-.826zm-8.349 8.297c.465-.518 1.172-.498 1.828-.352.749-.005 1.754.476 1.545 1.287-.247.961-1.593.91-2.352.783-.796-.131-1.754-.902-1.02-1.72l-.001.002zm2.013-17.297c.829-.367 2.491-.942 3.309-.284 1.015.819-.319 1.906-1.027 2.316a5.397 5.397 0 01-3.57.647.468.468 0 01-.428-.487c.004-.1.016-.199.036-.297-.16-.907.927-1.56 1.68-1.895zm-7.48 9.019a.488.488 0 01.049.053c1.22.063 2.585.481 3.399 1.287 1.135 1.122-.211 1.848-1.318 1.85-1.243.002-3.112-.89-3.633-2.091-.464-1.07.637-1.796 1.504-1.101l-.001.002zm-11.159-5.628a.178.178 0 01.09.021c.027.014.05.036.066.063.144.002.285.033.416.093a.467.467 0 01.303.416c.839.741 1.64 1.603 1.786 2.762.089.71-.257 2.29-1.33 1.74-.532-.273-.942-1.207-1.272-1.692-.306-.45-.674-.913-.834-1.442-.21-.662-.109-1.895.776-1.964l-.001.003z" fill="#EAEAEA"/><path d="M160.236 149.467l.239.197c.228.182.473.342.73.478.431.228 1.702.755 1.866.113.165-.643-1.694-1.168-2.785-1.422a.45.45 0 01-.116-.008c-.365.243-.343.457.066.642zM167.181 140.888c-.002.044-.007.089-.011.132a4.779 4.779 0 001.493-.125c.551-.143 1.474-.462 1.826-.945.465-.633-.366-.44-.701-.403a6.404 6.404 0 00-1 .186c-.411.11-1.313.385-1.767.825a.366.366 0 01.16.33zM149.608 144.905c.379.527.77 1.048 1.152 1.572l.249.343c.023-.157.039-.314.049-.472a2.31 2.31 0 00-.286-1.071c-.313-.597-.838-1.072-1.333-1.512a.642.642 0 01-.108-.119l-.156.08a.29.29 0 01-.075.065c.103.398.275.775.508 1.114zM186.616 149.006c.329-.236 1.49-1.245 1.257-1.777-.14-.32-1.178.148-1.669.398a.28.28 0 01-.081.231c-.582.544-1.365 1.259-1.342 2.128.542-.099 1.554-.777 1.835-.98zM182.579 159.555c.33.153.671.284 1.011.411l.688.24c.358.216.439.18.246-.11-.218-.692-1.123-1.29-1.761-1.558-.453-.192-.948-.21-1.407-.342a.383.383 0 00-.134.453c.095.361 1.106.79 1.357.906zM193.091 157.569c.407-.14 2.035-.603 2.065-1.143.013-.244-.363-.356-.535-.368a1.754 1.754 0 00-.475.109c-.167.04-.337.065-.508.074-.31.144-.604.32-.877.526-.117.09-.839.735-.724.954.115.22.885-.097 1.054-.152z" fill="#fff"/><path d="M208.43 171.784c.067-1.958-1.615-3.107-2.181-4.824-.017-3.195-.541-6.338-1.251-9.449-.696-3.046-1.27-6.382-2.878-9.106-1.608-2.725-4.181-4.794-6.603-6.736-2.666-2.137-5.518-4.032-8.592-5.531-6.08-2.964-13.19-4.012-19.855-4.801-5.844-.696-12.058-.543-17.354 2.323-2.969 1.607-5.509 3.906-7.604 6.545-1.727 2.176-3.311 4.622-3.643 7.341-3.029.154-6.447 1.72-7.777 4.558-.619 1.324-.458 2.831.613 3.866.848.821 1.963 1.108 3.101 1.206-.899 1.032-1.331 2.392-1.394 3.802-1.227 4.207-.286 9.241 3.07 12.122 4.842 4.157 11.087 6.683 17.032 8.794a327.716 327.716 0 0019.023 6.129c3.285.944 6.594 1.781 9.944 2.463 2.872.585 5.812 1.091 8.741.625a15.398 15.398 0 007.485-3.515c1.738-1.486 3.757-3.732 4.245-6.101.01-.028.031-.049.045-.076 1.042-1.92 1.21-4.538-.006-6.402 1.02.222 2.075.576 3.054.32 1.569-.409 2.725-1.961 2.785-3.553zm-58.279-36.191c4.785-2.708 10.353-2.962 15.706-2.411 6.033.626 12.436 1.762 18.07 4.045 2.825 1.144 5.456 2.713 7.922 4.496 2.466 1.783 5.018 3.771 7.016 6.103 2.22 2.593 2.829 5.939 3.575 9.175.745 3.236 1.395 6.536 1.391 9.885-2.896 2.764-8.24 2.241-11.9 1.982-4.699-.331-9.311-1.349-13.825-2.669-4.431-1.296-8.776-2.867-13.107-4.461-4.727-1.741-9.103-3.93-13.552-6.277a51.026 51.026 0 00-7.032-3.122c-2.204-.77-4.302-1.887-4.504-4.179 1.293-5.227 5.73-10.015 10.24-12.567zm46.979 50.005a13.37 13.37 0 01-6.15 3.195c-2.681.566-5.431.138-8.085-.367-3.038-.579-6.051-1.308-9.039-2.104-5.792-1.541-11.503-3.405-17.192-5.286-5.63-1.863-11.273-3.905-16.288-7.119-2.566-1.644-5.159-3.428-5.825-6.587a9.554 9.554 0 01-.182-1.357 11.42 11.42 0 002.244 2.565c2.289 1.965 5.157 3.179 7.901 4.346 3.284 1.395 6.643 2.612 10.036 3.714 6.96 2.26 14.058 4.034 21.156 5.783 6.297 1.552 12.72 3.076 19.25 2.683a16.852 16.852 0 003.12-.443c-.298.343-.614.668-.946.977zm2.928-4.697c-1.603 1.917-4.869 1.835-7.134 1.844-5.577.001-11.039-1.279-16.428-2.593-11.51-2.806-23.229-5.523-34.047-10.481-2.577-1.182-5.382-2.716-6.757-5.316a6.233 6.233 0 01-.027-5.885c-.337 1.293-.365 2.647.205 3.906.863 1.908 2.768 3.007 4.571 3.88 5.392 2.607 11.098 4.614 16.778 6.47l1.111.359c.557.259 1.142.45 1.744.57 10.131 3.321 20.391 6.636 31.001 7.884 2.557.296 5.288.584 7.29-1.356 1.344-1.304 2.077-3.179 1.762-4.995a.034.034 0 01.012-.006c.02.064.046.126.076.185.912 1.759 1.209 3.902-.157 5.534zm-62.601-23.624c.6.073 1.173.248 1.649.673.609.542.971 1.377 1.42 2.049 1.031 1.544 2.331 2.217 4.176 2.356 2.406.191 4.104.886 5.788 2.695 1.271 1.368 2.274 2.953 3.442 4.406a250.268 250.268 0 01-7.842-2.844c-2.366-.905-5.007-1.722-7.1-3.182-2.299-1.595-2.06-3.78-1.533-6.153zm27.068 15.625c1.331-.638 2.501-1.318 4.189-1.056 2.029.318 3.638 1.528 5.31 2.623 1.597 1.046 3.272 1.763 5.205 1.73 1.933-.034 3.834-.636 5.753-.466 3.847.339 6.994 4.002 11.081 2.607a4.99 4.99 0 001.661-.992 3.747 3.747 0 01-1.557 1.699c-1.924 1.098-4.939.279-7.004-.012-4.971-.701-9.861-1.864-14.691-3.22-3.314-.929-6.63-1.9-9.947-2.913zm41.322-.389c-.613.832-1.505.621-2.364.409-1.321-.326-2.602-.683-3.908-.103-1.307.58-2.075 1.723-3.112 2.609-2.892 2.471-6.688-.896-9.574-1.701-3.3-.92-6.806 1.004-9.973-.27-1.613-.649-2.953-1.861-4.501-2.642-1.414-.716-2.976-1.236-4.577-1.232-1.483.002-2.733.512-4.019 1.209-1.712.93-3.31 1.073-5.084.14-3.031-1.596-4.505-5.04-6.805-7.422-1.091-1.129-2.35-2.133-3.829-2.699-1.664-.638-4.048-.021-5.36-1.318-1.09-1.076-1.477-2.62-2.792-3.518-1.702-1.16-3.664-.588-5.567-.796-.811-.087-2.001-.363-2.145-1.347-.154-1.043.893-2.036 1.612-2.621 1.329-1.082 2.911-1.664 4.582-1.905l.42.938c.122.308.272.604.45.884 1.287 2.033 3.629 2.787 5.751 3.655 5.232 2.144 9.948 5.337 15.175 7.494 4.905 2.024 9.954 3.824 15.009 5.438 4.989 1.594 10.112 2.897 15.335 3.423 2.807.297 5.636.321 8.448.071 2.12-.201 4.265-.741 5.924-2.091.22.41.492.813.754 1.264.395.694.687 1.403.153 2.132l-.003-.001z" fill="#CCC"/></g><path d="M69.726 128.377a96.006 96.006 0 009.508 2.974 91.83 91.83 0 009.955 1.978c2.46.351 4.921.534 7.388.716v-.022c.552-2.08.908-4.206 1.064-6.351.075-1.045.1-2.093.078-3.144-.023-1.021.103-2.146-.984-2.591-1.284-.524-4.263-1.469-5.227-.09-.76 1.089-1.044 2.381-2.299 3.058-1.215.651-2.627.502-3.928.249a55.256 55.256 0 01-5.421-1.377c-3.614-1.089-7.137-2.477-10.784-3.458-.881-.242-2.028-.696-2.94-.39-.762.258-1.186.986-1.457 1.702-.519 1.37-.542 2.794-1.192 4.089.622.304 1.227.628 1.8.875a93.161 93.161 0 004.439 1.782z" fill="#AEAEAE"/><path d="M83.396 141.94a154.334 154.334 0 01-12.385-3.439 141.678 141.678 0 01-6.039-2.095 26.886 26.886 0 01-1.661-.677c-.046.463-.16.932-.231 1.391-.173 1.113-.36 2.223-.547 3.334-.349 2.08-.697 4.163-1.044 6.249-.716 4.308-1.436 8.615-2.159 12.92a2020.23 2020.23 0 00-2.128 12.924c-.672 4.106-1.188 8.277-2.017 12.353 0 .007.009.014.012.024.732 1.858 3.025 2.497 4.731 3.109 2.14.748 4.33 1.346 6.554 1.79a49 49 0 006.704.926c.993.064 2.025.091 2.98-.236a5.529 5.529 0 001.761-1.056c.11-.604.377-1.192.582-1.774.373-1.065.744-2.131 1.123-3.195.757-2.126 1.513-4.253 2.268-6.381 1.46-4.119 2.9-8.253 4.35-12.378 1.453-4.125 2.894-8.255 4.322-12.388.736-2.128 1.477-4.256 2.222-6.385.465-1.339.916-2.705 1.452-4.024-3.607.369-7.359-.179-10.85-.992zm-4.966 23.082c-4.16 1.222-9.244-.055-11.944-3.575-2.821-3.679-1.635-9.356 1.657-12.351a.327.327 0 01.08-.054c1.86-1.802 4.511-2.9 7.024-2.854 4.69.086 8.56 3.576 9.508 8.101 1 4.776-1.644 9.361-6.325 10.733z" fill="#EAEAEA"/><path d="M78.883 132.842a92.827 92.827 0 01-9.673-3.096 85.062 85.062 0 01-4.788-1.978c-1.207-.54-2.758-1.044-3.75-1.987-.377 1.512-1.204 2.904-.834 4.535.442 1.922 2.227 3.171 3.912 3.941 3.183 1.455 6.649 2.458 9.992 3.474 3.545 1.08 7.132 2.049 10.752 2.846 3.11.69 6.413 1.031 9.601.747.313-.028.625-.072.933-.132l.994-.286c.775-.309 1.439-.82 1.83-1.664.508-1.094.445-2.281.543-3.445-6.531-.058-13.224-1.325-19.512-2.955z" fill="#AEAEAE"/><path d="M98.851 134.218l-.513-.041c.48-1.824.813-3.684.994-5.561.176-1.913.346-4.048.023-5.95-.335-1.951-1.99-2.466-3.72-2.873-1.618-.374-3.709-.839-5.068.403-1.11 1.015-1.242 3.068-2.954 3.297-1.897.255-4.119-.582-5.919-1.087-4.169-1.173-8.24-2.666-12.487-3.564-1.712-.361-3.561-.685-4.848.781-1.387 1.581-1.098 3.813-1.984 5.604a7.18 7.18 0 00-1.333-.38.8.8 0 00-.293-.068c-.13-.033-.32-.063-.442.042-2.646 2.318-2.527 6.453-.137 8.847a9.085 9.085 0 002 1.487c-.21.583-.258 1.251-.372 1.846-.212 1.107-.409 2.217-.605 3.328-.373 2.078-.74 4.16-1.101 6.245-.753 4.301-1.491 8.605-2.215 12.914a7665.34 7665.34 0 00-2.158 12.921c-.71 4.29-1.474 7.586-1.957 11.911-.05.443.12 1.234.43 1.76.691 1.673 2.582 2.48 4.215 3.133a49.613 49.613 0 008.1 2.496c2.62.556 5.41 1.047 8.1.941 1.166-.045 2.353-.268 3.337-.936.57-.384.93-.801 1.148-1.294.496-.603.694-1.406.965-2.142.388-1.06.778-2.119 1.157-3.182.761-2.126 1.517-4.254 2.267-6.382 1.481-4.189 2.96-8.381 4.402-12.584 1.443-4.203 2.877-8.412 4.298-12.626a526.794 526.794 0 002.135-6.428c.47-1.438.96-2.887 1.329-4.362 1.422-.337 2.702-1.073 3.462-2.397.8-1.39 1.033-3.381.61-4.997-.208-.657-.227-1.051-.866-1.102zm-34.175-12.587c.272-.717.696-1.444 1.458-1.702.914-.306 2.06.148 2.94.388 3.647.98 7.17 2.364 10.784 3.457a54.967 54.967 0 005.42 1.377c1.299.253 2.716.407 3.929-.249 1.257-.677 1.538-1.968 2.299-3.057.963-1.38 3.945-.435 5.227.089 1.087.445.965 1.57.983 2.592a33.573 33.573 0 01-.077 3.143 34.62 34.62 0 01-1.061 6.356l-.001.022c-2.467-.182-4.928-.365-7.388-.715a91.829 91.829 0 01-9.955-1.979 95.489 95.489 0 01-9.508-2.974 92.185 92.185 0 01-4.439-1.781c-.573-.247-1.178-.572-1.8-.875.648-1.298.673-2.722 1.19-4.092zm28.118 25.326l-2.224 6.395a2230.952 2230.952 0 01-4.321 12.388c-1.451 4.12-2.89 8.255-4.351 12.378-.753 2.128-1.509 4.255-2.268 6.381-.379 1.064-.75 2.13-1.123 3.195-.205.582-.472 1.17-.582 1.774a5.528 5.528 0 01-1.76 1.056c-.956.329-1.984.302-2.981.236a48.997 48.997 0 01-6.704-.926 48.859 48.859 0 01-6.554-1.79c-1.706-.616-3.999-1.251-4.73-3.109 0-.009-.009-.016-.012-.024.828-4.08 1.345-8.251 2.016-12.353.703-4.309 1.413-8.617 2.128-12.924.715-4.307 1.435-8.613 2.16-12.92.346-2.08.694-4.163 1.043-6.249.19-1.111.374-2.221.547-3.334.071-.459.18-.928.23-1.391.547.247 1.104.468 1.662.677a153.333 153.333 0 0018.424 5.534c3.491.813 7.243 1.358 10.85.99-.534 1.31-.985 2.674-1.45 4.016zm5.055-7.717c-.391.844-1.054 1.356-1.83 1.665l-.994.285c-.308.061-.62.105-.933.132-3.187.285-6.489-.061-9.601-.747-3.62-.796-7.207-1.766-10.752-2.845-3.343-1.017-6.809-2.019-9.992-3.475-1.685-.77-3.47-2.02-3.912-3.941-.375-1.631.457-3.023.833-4.535.993.944 2.547 1.447 3.751 1.987a85.747 85.747 0 004.788 1.979 93.068 93.068 0 009.673 3.095c6.288 1.635 12.978 2.901 19.516 2.955-.102 1.162-.04 2.348-.547 3.443v.002z" fill="#CCC"/><path d="M75.247 146.189c-2.513-.047-5.164 1.052-7.025 2.854a.354.354 0 00-.079.053c-3.292 2.995-4.48 8.672-1.657 12.351 2.699 3.52 7.784 4.793 11.944 3.575 4.681-1.371 7.326-5.957 6.325-10.733-.948-4.53-4.818-8.014-9.508-8.1zm3.486 16.699c-3.29 1.364-7.302.702-9.966-1.668-1.545-1.375-2.518-3.281-2.406-5.374a6.88 6.88 0 01.144-1.063c1.026-3.609 3.478-6.664 7.51-6.966a8.423 8.423 0 018.572 5.665c1.284 3.705-.135 7.865-3.854 9.406z" fill="#AEAEAE"/><path d="M165.049 47.011c-2.191.782-4.348 1.894-6.025 3.53-3.555 3.471-4.883 9.262-5.26 14.2 1.377-.397 2.485-1.972 3.532-2.785a7.244 7.244 0 013.752-1.519c1.945-.212 3.851.24 5.574 1.09-.695-3.802.031-7.788 1.32-11.424a66.078 66.078 0 011.717-4.338c-1.524.441-3.124.716-4.61 1.246zM194.528 91.217c.31 2.35-1.157 5.24-2.262 6.995a26.63 26.63 0 01-1.931 2.666c-.546.668-2.383 2.093-1.985 3.062.789 1.908 5.454.218 6.752-.201 4.08-1.32 7.857-3.66 10.604-6.982a16.142 16.142 0 003.054-5.79c.308-1.073.36-2.16.419-3.24a30.22 30.22 0 01-7.229 2.727 27.632 27.632 0 01-7.422.763zM211.379 72.636c-.995.684-2.11 1.229-3.135 1.748a48.049 48.049 0 01-6.204 2.622 47.257 47.257 0 01-15.132 2.549c1.44 2.04 1.223 5.18 2.011 7.43.473 1.35 1.589 1.277 2.835 1.413.974.103 1.954.152 2.934.145a26.431 26.431 0 005.991-.72c3.892-.93 8.031-2.778 10.913-5.624 1.728-1.712 2.016-3.922 1.368-6.212-.338-1.164-1.027-2.244-1.581-3.351zM184.293 45.828c.6-.92 1.243-1.974 1.993-2.924-1.499-.892-3.086-1.256-4.92-1.406-1.958-.16-4.329-.22-6.145.632-1.763.83-2.42 3.008-3.166 4.67-.883 1.967-1.72 3.96-2.341 6.027-1.135 3.791-1.497 8.105.36 11.742.9 1.754 2.28 3.12 3.885 4.237.898.627 1.878 1.127 2.81 1.697l.042-.434a67.748 67.748 0 011.013-6.989c.36-1.784.764-3.61 1.265-5.416.734-4.223 2.919-8.33 5.204-11.836zM202.64 73.756a43.814 43.814 0 005.696-2.658c1.553-.864 3.188-1.742 3.208-3.744.017-1.815-.792-3.812-1.423-5.493a34.916 34.916 0 00-2.092-4.54 35.67 35.67 0 00-6.258-8.26c-2.459-2.416-5.591-5.141-8.934-6.207-2.469-.784-3.727.466-5.105 2.35a42.804 42.804 0 00-3.031 4.822c-1.466 2.708-2.478 5.588-3.685 8.4-.41 1.519-.788 3.048-1.08 4.603a80.072 80.072 0 00-.637 3.992.685.685 0 01.091.418c.008.223-.05.444-.168.635l-.073.12c-.075.628-.14 1.256-.197 1.884-.148 1.642-.767 4.68.57 6 1.271 1.251 4.55.818 6.198.817a48.876 48.876 0 005.497-.335 46.937 46.937 0 0011.423-2.804z" fill="#EAEAEA"/><path d="M213.6 70.409c1.97-3.278-.076-7.92-1.446-11.07-3.274-7.532-9.369-14.6-16.876-18.16-1.906-.904-4.18-1.54-6.206-.64-.267.118-.524.259-.767.42-1.159-1.355-3.367-1.738-5.052-2.004a19.698 19.698 0 00-7.342.175c-2.255.503-3.86 1.767-4.92 3.813-.08.156-.153.318-.233.48-2.392-.09-5.115.815-7.3 1.62-2.444.9-4.758 2.166-6.575 4.061-4.129 4.31-5.536 11.196-5.801 16.954-.025.525.416 1.154.953 1.253 1.293.24 2.465.073 3.621-.588 1.384-.795 2.291-2.163 3.62-3.003 2.667-1.68 5.64.02 8.31 1.003 1.56 3.554 5.197 6.684 9 7.77-.087 1.37-.038 2.76.501 3.984.703 1.602 2.128 2.355 3.792 2.64 1.126.19 2.261.317 3.401.377.155.36.43.693.623 1.056.517.976.776 2.058.972 3.14.336 1.86.221 4.68 1.723 6.055 1.009.922 2.818 1.232 4.492 1.36a5.588 5.588 0 01-.098 1.725c-.295 1.287-.927 2.47-1.608 3.591a22.908 22.908 0 01-2.64 3.536c-.705.775-1.552 1.509-1.905 2.53-.669 1.932.629 3.89 2.462 4.542 2.394.852 5.505-.1 7.8-.822 4.653-1.459 9.049-4.099 12.088-7.962a19.253 19.253 0 003.385-6.502c.515-1.768.991-4.048.583-5.972a13.918 13.918 0 002.698-2.785c1.505-2.113 1.719-4.785 1.148-7.26-.396-1.725-1.199-3.804-2.403-5.317zm-46.978-8.88c-1.723-.848-3.629-1.302-5.574-1.09a7.243 7.243 0 00-3.752 1.517c-1.047.813-2.16 2.388-3.532 2.785.377-4.938 1.705-10.729 5.26-14.2 1.68-1.636 3.84-2.748 6.025-3.53 1.485-.53 3.086-.805 4.613-1.246-.627 1.43-1.2 2.89-1.718 4.338-1.291 3.636-2.017 7.617-1.322 11.424v.002zm11.208 1.554a67.74 67.74 0 00-1.013 6.989l-.042.433c-.932-.57-1.911-1.07-2.81-1.697-1.605-1.118-2.985-2.483-3.885-4.237-1.863-3.636-1.501-7.95-.36-11.742.615-2.069 1.452-4.062 2.336-6.029.745-1.662 1.402-3.84 3.166-4.67 1.816-.852 4.187-.792 6.146-.631 1.832.15 3.42.513 4.92 1.405-.75.95-1.395 2.005-1.994 2.924-2.28 3.505-4.47 7.613-5.198 11.836-.502 1.806-.905 3.632-1.266 5.417v.002zm7.89 13.805c-1.648 0-4.927.434-6.198-.817-1.337-1.32-.72-4.359-.57-6 .056-.63.122-1.257.197-1.884a1.43 1.43 0 00.073-.12c.118-.19.176-.412.168-.635a.685.685 0 00-.091-.418c.178-1.336.391-2.667.637-3.992.288-1.56.666-3.084 1.08-4.603 1.207-2.807 2.219-5.687 3.685-8.4a42.865 42.865 0 013.031-4.815c1.378-1.89 2.64-3.134 5.105-2.35 3.343 1.064 6.48 3.791 8.932 6.207a35.67 35.67 0 016.258 8.26 34.772 34.772 0 012.091 4.54c.632 1.68 1.44 3.678 1.424 5.493-.021 2.003-1.655 2.88-3.208 3.744a43.89 43.89 0 01-5.694 2.658 46.946 46.946 0 01-11.423 2.804c-1.824.213-3.66.322-5.497.328zm23.04 14.08a16.132 16.132 0 01-3.059 5.79c-2.747 3.321-6.523 5.663-10.604 6.981-1.297.419-5.963 2.108-6.751.2-.399-.968 1.44-2.394 1.984-3.061a26.63 26.63 0 001.931-2.666c1.105-1.755 2.572-4.644 2.262-6.995a27.64 27.64 0 007.427-.768 30.238 30.238 0 007.234-2.729c-.056 1.08-.111 2.173-.424 3.247zm2.828-8.768c-2.88 2.847-7.021 4.695-10.912 5.625a26.451 26.451 0 01-8.926.574c-1.246-.135-2.362-.062-2.834-1.412-.789-2.25-.575-5.392-2.012-7.43a47.259 47.259 0 0015.136-2.55 48.147 48.147 0 006.208-2.622c1.024-.52 2.139-1.065 3.134-1.749.554 1.108 1.243 2.188 1.576 3.352.65 2.29.362 4.5-1.37 6.212z" fill="#CCC"/><g clip-path="url(#prefix__clip1_524_1696)"><path d="M86.297 42.846c.568.008 1.471-.388 1.449-1.074-.022-.636-.857-.978-1.389-.812-.532.166-.957.773-1.193 1.332.309.3.706.495 1.133.554zM92.719 62.12a2.1 2.1 0 002.232.842c.234-.11.456-.244.663-.4.487-.425.824-.994.963-1.626.26-1.365-.847-2.45-2.168-2.538-1.888-.13-2.717 2.315-1.69 3.723z" fill="#fff"/><path d="M83.293 84.894a.63.63 0 01.048.11c1.327 1.067 2.964 1.776 4.585 2.211 2.48.667 4.86.681 7.107-.68a9.55 9.55 0 003.96-4.84c1.515-4.14-.388-8.874-4.184-11.025-3.795-2.15-8.84-1.05-11.56 2.33-2.913 3.614-1.923 8.125.044 11.894zM64.42 54.986a.483.483 0 01-.076.388c1.063 2.29 3.261 4.255 5.447 5.215a9.782 9.782 0 0010.864-2.007c2.955-2.918 4.153-7.947 1.36-11.398-2.931-3.628-8.122-3.638-12.078-1.903-1.926.842-3.86 2.134-4.948 3.977-1.089 1.843-1.002 3.736-.57 5.728z" fill="#AEAEAE"/><path d="M48.503 45.331c-.897 2.762-2.264 5.477-4.557 7.337-2.629 2.13-5.853 1.84-8.887 2.874-1.883.641-2.88 1.63-3.307 3.555-.279 1.253-.733 2.32-1.828 3.056-1.238.835-3.058 1.034-3.374 2.773-.316 1.738 1.192 3.1 2.66 3.723.13.054.244.142.329.254 2.04.524 4.293.04 5.742-1.688 2.024-2.413 2.593-5.776 5.21-7.745 2.666-2.008 6.38-1.614 8.976-3.729 3.013-2.453 3.532-6.376 3.903-9.988.316-3.096.817-6.325 3.074-8.653 1.802-1.857 4.308-2.876 6.86-3.13a13.346 13.346 0 014.066.223c1.617.345 3.095 1.159 4.708 1.496.828.173 1.791.243 2.565-.173.698-.373.919-1.028 1.264-1.69.543-1.038 1.265-1.845 2.45-2.11.707-.158 1.4-.073 2.115-.084.836-.015 1.133-.251 1.702-.819.896-.895 1.877-1.331 3.154-1.288 1.824.062 5.673 2.208 6.683-.222a2.86 2.86 0 00-1.023-3.435c-1.29-.865-3.017-.809-4.44-.321-1.49.512-2.723 1.566-4.204 2.1a7.022 7.022 0 01-4.113.175c-3.333-.832-6.007-3.135-9.591-2.99-3.185.125-6.214 1.53-8.844 3.244-2.92 1.905-5.827 4.268-7.721 7.236-1.933 3.023-2.472 6.661-3.572 10.02z" fill="#EAEAEA"/><path d="M84.896 31.85c-.808.115-1.125.777-1.7 1.263-1.232 1.04-2.49.66-3.947.829-1.456.17-1.72 2.38-2.883 3.241-1.202.892-2.774 1.098-4.23.888-1.8-.26-3.405-1.22-5.172-1.604a11.072 11.072 0 00-4.567-.055c-3.612.738-5.79 3.302-6.464 6.871-.675 3.57-.512 7.255-2.257 10.576-1.59 3.024-4.064 4.775-7.32 5.623-1.705.442-3.602.758-4.976 1.959-1.164 1.015-1.853 2.467-2.564 3.805-.425.816-.905 1.6-1.436 2.351 6.11 3.037 12.178 6.153 18.281 9.203 22.147 11.065 44.657 21.265 67.324 31.21.116-1.256-1.095-3.223-1.462-4.093l-1.825-4.322-3.767-8.894c-4.236-9.999-8.308-20.07-12.634-30.028-2.05-4.724-4.192-9.409-6.523-14-2.363-4.655-5.05-9.088-7.75-13.549a1.223 1.223 0 01-.178-.548c-.52-.082-1.035-.19-1.544-.326-.746-.19-1.618-.512-2.406-.4zM64.068 42.73a1.556 1.556 0 01-1.465-.271 1.42 1.42 0 01-.343-.408 1.364 1.364 0 01-.322-1.308 1.492 1.492 0 011.224-1.132 1.635 1.635 0 011.526 2.62 1.668 1.668 0 01-.62.499zM45.564 66.428a.674.674 0 01-.352.123c-.506.026-1.387-.32-1.535-.852a1.491 1.491 0 01.255-1.313c.13-.173.3-.312.495-.407-.239.121.139-.073.206-.1a1.344 1.344 0 011.418.314c.622.643.616 1.755-.261 2.164a.92.92 0 01-.226.07zm12.755-7.964c-.106.052-.22.087-.338.103-.587.082-1.104-.358-1.33-.862a1.417 1.417 0 01.044-1.204c.103-.203.268-.37.47-.475.208-.103.442-.142.672-.112.23.016.457.028.683.06a1.106 1.106 0 01.856.719 1.364 1.364 0 01-.068 1.073 1.342 1.342 0 01-.992.7l.003-.002zm-5.023 11.345c-.657-.588-1.402-1.737-1.737-2.873a.747.747 0 01-.101-.298l-.017-.192c-.122-.66-.075-1.289.24-1.768.746-2.036 3.023-3.377 5.281-2.982 2.87.5 4.862 3.45 3.373 6.159-1.372 2.511-4.64 4.106-7.04 1.954zM76.51 67.57a1.141 1.141 0 011.207-.62c.178-.059.368-.075.553-.048a.975.975 0 01.822 1.063 4.382 4.382 0 01-.22.875.8.8 0 01-.87.446 1.349 1.349 0 01-.733-.441.933.933 0 01-.437-.143.905.905 0 01-.322-1.132zm-5 10.535a2.466 2.466 0 01-2.535-2.047 2.82 2.82 0 01-.246-1.166 2.993 2.993 0 011.246-2.368c1.416-1.004 4.119-.708 4.44 1.324.296 1.862-.857 4.183-2.905 4.257zm43.558 20.927c1.004.13 2 1.087 1.527 2.151a1.57 1.57 0 01-.488.607c-.003.026-.002.052-.006.077a.977.977 0 01-.838.77 1.909 1.909 0 01-1.952-.982 1.927 1.927 0 01-.224-.736 2.052 2.052 0 01.459-1.425c.392-.468.939-.542 1.519-.467l.003.005zm-7.805-9.306c1.883.549 4.111 2.167 3.269 4.408-.871 2.306-3.83 2.417-5.715 1.377-1.24-.68-2.059-2.136-1.78-3.37-.284-.827.269-1.68 1.002-2.169.972-.637 2.158-.563 3.22-.248l.004.002zm.057-8.345c.614.109 1.05.844.73 1.422-.021.04-.042.08-.065.118a.994.994 0 01-1.034.53.98.98 0 01-.789-.855l-.019-.133c-.097-.66.566-1.197 1.179-1.09l-.002.008zm-9.505-11.382c4.183 3.764 5.049 9.768 2.045 14.516-1.404 2.219-3.556 4.008-6.087 4.782-2.805.858-5.797.23-8.444-.905-2.252-.969-4.407-2.51-5.51-4.76a6.901 6.901 0 01-.685-2.979c-.651-3.832.917-8.235 3.753-10.669 4.262-3.664 10.724-3.783 14.93.007l-.002.008zM93.018 56.65c2.38-.83 5.286.848 5.574 3.399a4.264 4.264 0 01-1.32 3.515c-.619.574-1.686 1.238-2.489.873a3.407 3.407 0 01-3.041-.992c-1.904-1.906-1.37-5.89 1.278-6.803l-.002.008zm-1.254-7.277c.289-.117.608-.14.91-.067.421.109.883.394 1 .844.078.246.066.51-.034.748-.009.006-.014.022-.018.033-.043.291-.175.561-.378.774a1.48 1.48 0 01-1.122.482c-.523-.023-.917-.41-1.129-.86a1.476 1.476 0 01.77-1.96v.006zm-4.937-10.37c1.793.102 3.306 1.83 2.69 3.63-.616 1.8-2.887 2.57-4.564 1.771a2.5 2.5 0 01-1.336-1.516.86.86 0 01-.1-.327c-.191-1.891 1.36-3.674 3.309-3.563l.001.006zm-1.755 8.632c2.29 5.006-.27 11.005-4.637 13.929-4.417 2.959-10.168 2.511-14.297-.76-1.94-1.538-3.48-3.695-3.966-6.15a8.394 8.394 0 01-.162-1.598c-.367-1.8.182-3.854 1.168-5.351 1.679-2.592 4.58-4.35 7.477-5.281 5.338-1.72 11.916-.267 14.417 5.211z" fill="#EAEAEA"/><path d="M72.641 74.245c-.233-.811-1.58-.393-1.918.1-.4.596-.142 1.25-.043 1.878a1.096 1.096 0 00.916.177 1.162 1.162 0 00.819-.8c.126-.315.323-1.017.226-1.355zM56.086 63.553c-1.828.044-2.811 1.485-3.045 3.154a.919.919 0 01-.03.131 4.156 4.156 0 001.922 2.12c1.6.758 3.614-.885 4.043-2.39.48-1.696-1.34-3.048-2.89-3.015zM108.813 93.14c-.083-.939-1.482-1.44-2.269-1.597-1.196-.238-1.486.318-2.184.975.46 1.972 4.613 2.405 4.453.621z" fill="#fff"/><path d="M47.725 39.571c-1.157 3.855-1.818 8.472-5.077 11.225-3.117 2.631-7.752 1.46-10.945 4.034a5.713 5.713 0 00-1.591 1.964c-.42.888-.327 2.012-.8 2.849-.473.837-1.546 1.117-2.37 1.551a4.851 4.851 0 00-1.798 1.493c-2.14 3.015-.008 6.741 3.216 7.547a7.243 7.243 0 004.334.564 6.715 6.715 0 003.683-2.018c21.786 12.105 44.47 22.733 67.198 32.897 6.468 2.89 12.944 5.784 19.488 8.487a.993.993 0 001.165-.249c1.52-1.979.017-4.434-.782-6.416l-3.308-8.18a4583.573 4583.573 0 00-6.76-16.603c-4.244-10.357-8.352-20.804-13.296-30.846-2.577-5.235-5.322-10.508-8.664-15.306 1.135-.25 2.113-.909 2.708-2.254a5.253 5.253 0 00-2.316-6.692c-3.077-1.654-6.213-.33-8.99 1.212-1.919 1.068-3.596 1.004-5.599.156-1.694-.72-3.288-1.652-5.08-2.14-3.303-.91-6.832-.231-9.902 1.153-3.245 1.464-6.187 3.606-8.764 6.038-2.858 2.673-4.633 5.811-5.75 9.534zM88.85 32.58c.015.194.076.382.178.548 2.7 4.461 5.387 8.895 7.75 13.548 2.33 4.593 4.472 9.277 6.523 14.001 4.319 9.963 8.391 20.034 12.634 30.029l3.767 8.893 1.824 4.322c.369.87 1.58 2.836 1.462 4.093-22.667-9.945-45.176-20.145-67.325-31.213-6.103-3.05-12.17-6.166-18.281-9.203.53-.75 1.01-1.535 1.435-2.35.711-1.326 1.402-2.788 2.565-3.806 1.374-1.201 3.265-1.513 4.975-1.959 3.256-.848 5.73-2.598 7.32-5.623 1.747-3.322 1.57-6.983 2.256-10.577.687-3.594 2.853-6.134 6.464-6.871 1.51-.3 3.066-.281 4.568.054 1.765.387 3.373 1.346 5.171 1.604 1.454.213 3.022.008 4.23-.887 1.163-.862 1.395-3.074 2.884-3.242 1.488-.168 2.715.21 3.946-.828.576-.486.89-1.147 1.7-1.263.81-.115 1.66.209 2.408.405.51.136 1.025.244 1.546.325zm-20.206-7.75c3.585-.144 6.258 2.159 9.591 2.99a7.023 7.023 0 004.107-.178c1.481-.533 2.715-1.587 4.205-2.1 1.422-.487 3.15-.543 4.44.323a2.86 2.86 0 011.022 3.434c-1.014 2.433-4.863.288-6.682.222-1.277-.043-2.259.393-3.155 1.288-.565.574-.865.804-1.701.819-.717.008-1.408-.074-2.115.084-1.184.264-1.908 1.072-2.45 2.111-.348.658-.567 1.316-1.265 1.69-.773.415-1.737.345-2.565.172-1.613-.337-3.088-1.147-4.708-1.496a13.345 13.345 0 00-4.066-.223c-2.551.255-5.058 1.273-6.86 3.13-2.257 2.328-2.758 5.557-3.073 8.653-.378 3.616-.891 7.535-3.904 9.988-2.595 2.115-6.31 1.721-8.977 3.729-2.615 1.97-3.185 5.332-5.208 7.745-1.45 1.728-3.703 2.212-5.743 1.689a.794.794 0 00-.328-.255c-1.468-.621-2.984-1.954-2.661-3.723.323-1.77 2.127-1.935 3.374-2.772 1.099-.739 1.553-1.806 1.828-3.057.428-1.925 1.424-2.914 3.307-3.555 3.034-1.034 6.26-.745 8.887-2.874 2.293-1.86 3.657-4.581 4.557-7.337 1.098-3.36 1.643-6.991 3.575-10.018 1.894-2.968 4.804-5.333 7.72-7.236 2.632-1.71 5.66-3.115 8.845-3.24l.003-.002z" fill="#CCC"/><path d="M56.966 61.704c-2.258-.395-4.535.946-5.28 2.982-.317.48-.364 1.107-.24 1.767l.016.192a.745.745 0 00.1.298c.336 1.137 1.081 2.286 1.738 2.874 2.393 2.144 5.662.549 7.039-1.955 1.49-2.708-.507-5.665-3.373-6.158zm-2.04 7.258a4.155 4.155 0 01-1.923-2.119.919.919 0 00.03-.131c.229-1.666 1.217-3.11 3.045-3.154 1.558-.038 3.377 1.314 2.89 3.015-.434 1.497-2.443 3.148-4.043 2.39zM46.047 64.195a1.344 1.344 0 00-1.418-.314c-.067.026-.445.221-.206.1a1.374 1.374 0 00-.495.407 1.493 1.493 0 00-.255 1.313c.148.532 1.03.878 1.535.852a.674.674 0 00.352-.123.925.925 0 00.226-.071c.877-.409.89-1.525.26-2.164zM59.372 56.695a1.107 1.107 0 00-.857-.718c-.224-.034-.456-.043-.683-.061-.23-.03-.464.009-.671.112a1.103 1.103 0 00-.47.475 1.419 1.419 0 00-.044 1.204c.22.507.743.944 1.33.862.117-.016.231-.051.338-.103a1.344 1.344 0 00.989-.699 1.363 1.363 0 00.068-1.072zM63.162 39.61a1.493 1.493 0 00-1.224 1.131 1.363 1.363 0 00.322 1.309c.087.156.204.294.343.408a1.555 1.555 0 001.465.27 1.667 1.667 0 00.941-1.229 1.634 1.634 0 00-1.847-1.889zM83.517 42.56c.011.116.045.227.1.328a2.497 2.497 0 001.336 1.516c1.677.799 3.944.04 4.562-1.777.619-1.818-.89-3.532-2.689-3.629-1.949-.111-3.5 1.672-3.309 3.563zm2.835-1.598c.537-.168 1.372.174 1.389.813.022.685-.881 1.081-1.449 1.074a2.018 2.018 0 01-1.137-.552c.24-.561.645-1.163 1.197-1.334zM91.743 63.438a3.406 3.406 0 003.042.992c.803.364 1.874-.293 2.488-.873a4.263 4.263 0 001.32-3.516c-.287-2.55-3.189-4.22-5.573-3.399-2.649.912-3.182 4.897-1.277 6.796zm2.672-5.044c1.321.089 2.43 1.173 2.168 2.538a3.014 3.014 0 01-.963 1.626c-.206.156-.428.29-.663.4a2.1 2.1 0 01-2.232-.841c-1.033-1.404-.204-3.849 1.69-3.723zM90.989 51.316c.212.45.606.838 1.128.86a1.482 1.482 0 001.122-.482c.203-.212.335-.483.378-.773.008-.005.013-.022.019-.034.1-.237.112-.502.034-.747-.117-.45-.58-.737-1-.845a1.46 1.46 0 00-1.684 2.016l.003.005zM76.841 68.715a.932.932 0 00.437.142c.19.223.448.377.734.44a.8.8 0 00.87-.444c.1-.288.171-.585.21-.887a.976.976 0 00-.828-1.07 1.226 1.226 0 00-.554.047 1.142 1.142 0 00-1.206.62.904.904 0 00.337 1.152zM74.412 73.846c-.322-2.032-3.024-2.328-4.44-1.325a2.993 2.993 0 00-1.247 2.37c-.002.401.082.799.246 1.165a2.465 2.465 0 002.53 2.044c2.057-.07 3.21-2.39 2.91-4.254zM71.594 76.4a1.095 1.095 0 01-.917-.177c-.099-.63-.36-1.28.044-1.878.336-.5 1.683-.919 1.918-.1.098.34-.1 1.04-.218 1.357a1.163 1.163 0 01-.827.798zM82.887 69.978c-2.835 2.434-4.404 6.836-3.753 10.669a6.901 6.901 0 00.686 2.979c1.102 2.25 3.254 3.792 5.51 4.76 2.642 1.135 5.638 1.762 8.444.904 2.53-.774 4.682-2.563 6.086-4.782 3.009-4.744 2.136-10.758-2.044-14.516-4.205-3.791-10.668-3.672-14.93-.014zm11.916.683c3.8 2.159 5.704 6.893 4.185 11.024a9.55 9.55 0 01-3.964 4.835c-2.246 1.362-4.624 1.354-7.106.681-1.622-.435-3.252-1.149-4.586-2.21a.632.632 0 00-.047-.112c-1.968-3.768-2.954-8.273-.047-11.897 2.73-3.366 7.77-4.472 11.571-2.312l-.006-.01zM63.182 47.696c-.98 1.509-1.533 3.556-1.168 5.352.003.537.057 1.072.162 1.598.486 2.455 2.026 4.611 3.966 6.15 4.129 3.271 9.88 3.718 14.297.76 4.366-2.924 6.926-8.924 4.636-13.929-2.506-5.473-9.084-6.927-14.424-5.213-2.89.933-5.791 2.69-7.47 5.282zm6.753-2.418c3.958-1.731 9.144-1.718 12.077 1.903 2.794 3.45 1.596 8.48-1.36 11.398a9.781 9.781 0 01-10.863 2.007c-2.186-.96-4.384-2.925-5.447-5.214a.483.483 0 00.076-.389c-.436-1.996-.496-3.897.572-5.723 1.069-1.826 3.02-3.14 4.945-3.982zM103.032 92.15c-.279 1.235.54 2.69 1.78 3.37 1.882 1.036 4.844.93 5.715-1.376.842-2.241-1.392-3.856-3.269-4.408-1.061-.313-2.255-.382-3.219.254-.741.475-1.287 1.326-1.007 2.16zm3.509-.599c.792.165 2.186.659 2.269 1.597.159 1.784-3.995 1.352-4.453-.621.696-.663.991-1.222 2.187-.984l-.003.008zM113.09 100.928a1.91 1.91 0 00.721 1.324 1.913 1.913 0 001.455.394.972.972 0 00.838-.771c.004-.024.003-.05.007-.076.209-.16.374-.37.481-.61.474-1.064-.523-2.02-1.527-2.151-.581-.077-1.122-.004-1.516.475a2.054 2.054 0 00-.459 1.415zM106.145 82.456l.019.133a.98.98 0 00.789.855.997.997 0 001.034-.53l.065-.118c.32-.579-.116-1.314-.73-1.423-.613-.108-1.276.43-1.177 1.083z" fill="#CCC"/></g><defs><clipPath id="prefix__clip0_524_1696"><path fill="#fff" transform="rotate(19.264 -240.326 477.085)" d="M0 0h84.697v84.697H0z"/></clipPath><clipPath id="prefix__clip1_524_1696"><path fill="#fff" transform="rotate(-122.043 72.4 60.679)" d="M0 0h111.915v111.915H0z"/></clipPath></defs></svg>